This torrent contains "Trololo Man (Original Mix)" by Doctor Werewolf, purchased and downloaded from iTunes. Here are more details about the song:

Count                                    : 217
Count of stream of this kind             : 1
Kind of stream                           : Audio
Kind of stream                           : Audio
Stream identifier                        : 0
Inform                                   : 256 Kbps, 44.1 KHz, 2 channels, MPEG Audio (Version 1) (Layer 3) (Joint stereo)
Format                                   : MPEG Audio
Commercial name                          : MPEG Audio
Format version                           : Version 1
Format profile                           : Layer 3
Format settings                          : Joint stereo
Mode                                     : Joint stereo
Internet media type                      : audio/mpeg
Codec                                    : MPA1L3
Codec                                    : MPEG-1 Audio layer 3
Codec profile                            : Joint stereo
Duration                                 : 163004
Duration                                 : 2mn 43s
Duration                                 : 2mn 43s 4ms
Duration                                 : 2mn 43s
Duration                                 : 00:02:43.004
Bit rate mode                            : CBR
Bit rate mode                            : Constant
Bit rate                                 : 256000
Bit rate                                 : 256 Kbps
Channel(s)                               : 2
Channel(s)                               : 2 channels
Sampling rate                            : 44100
Sampling rate                            : 44.1 KHz
Samples count                            : 7188480
Frame count                              : 6240
Compression mode                         : Lossy
Compression mode                         : Lossy
Stream size                              : 5210279
Stream size                              : 4.97 MiB (100%)
Stream size                              : 5 MiB
Stream size                              : 5.0 MiB
Stream size                              : 4.97 MiB
Stream size                              : 4.969 MiB
Stream size                              : 4.97 MiB (100%)
Proportion of this stream                : 0.99975
Writing library                          : LAME3.99.5
Writing library                          : LAME3.99.5

Thanks for downloading everyone, and don't forget to seed! Trolololol!
  _
 ( ((
   =
 ___ `- 
(____))(  ----
(____)) _  
(____))
(____))____/----